<?xml version="1.0" standalone="no"?>
<!DOCTYPE svg PUBLIC "-//W3C//DTD SVG 20010904//EN"
 "http://www.w3.org/TR/2001/REC-SVG-20010904/DTD/svg10.dtd">
<svg version="1.0" xmlns="http://www.w3.org/2000/svg"
     width="1220.000000pt" height="1220.000000pt" viewBox="0 0 143.000000 120.000000"
 preserveAspectRatio="xMidYMid meet">

<g transform="translate(0.000000,120.000000) scale(0.100000,-0.100000)"
   fill="#F2F2F2" stroke="none">
<path d="M1234 1018 c-5 -7 -7 -47 -5 -88 l2 -75 -70 -58 c-39 -32 -71 -62
-71 -67 0 -17 92 -101 105 -96 7 2 52 35 99 72 l86 68 0 128 0 128 -69 0 c-45
0 -73 -4 -77 -12z"/>
<path d="M32 997 c-10 -11 6 -44 71 -158 46 -79 132 -231 191 -336 l109 -193
71 0 71 0 98 193 c54 107 103 202 110 211 11 15 37 -6 230 -194 l216 -211 86
3 c87 4 114 15 99 40 -21 34 -654 650 -665 646 -6 -2 -62 -109 -125 -238 -62
-129 -116 -235 -121 -234 -4 0 -71 108 -148 240 l-141 239 -70 3 c-51 2 -74
-1 -82 -11z"/>
<path d="M785 488 c-44 -39 -101 -89 -127 -112 -26 -22 -48 -47 -48 -53 0 -10
28 -13 108 -13 l107 0 75 67 c41 36 76 70 78 74 5 13 -81 109 -98 108 -8 0
-51 -32 -95 -71z"/>
</g>
</svg>
